<?xml version='1.0' encoding='UTF-8'?>
<svg viewBox="-2.0025 -2 32 32" xmlns="http://www.w3.org/2000/svg" xmlns:xlink="http://www.w3.org/1999/xlink">
  <g id="Layer_1" transform="translate(-0.915, -0.9335)">
    <g transform="matrix(0.9335, 0, 0, 0.9335, 0, 0)">
      <g id="icon">
        <g>
          <path d="M16.283, 6.135C16.579, 6.135 17.015, 5.96 17.617, 5.718C18.774, 5.253 20.523, 4.551 22.664, 4.551C22.991, 4.551 23.321, 4.568 23.644, 4.601L23.654, 4.602C25.609, 4.694 27.107, 5.356 28.097, 5.806C28.66, 6.062 29.067, 6.229 29.37, 6.229C29.37, 6.229 29.37, 6.229 29.37, 6.229C29.544, 6.229 29.681, 6.187 29.777, 6.069C29.839, 5.993 29.924, 5.838 29.804, 5.596C29.366, 4.715 26.374, 3.335 23.293, 3.3C23.05, 3.284 22.801, 3.278 22.553, 3.278C19.206, 3.278 16.298, 4.752 15.893, 5.523C15.776, 5.746 15.849, 5.9 15.903, 5.971C15.96, 6.044 16.072, 6.135 16.283, 6.135z" fill="#727272" class="Black" />
        </g>
      </g>
    </g>
  </g>
  <g id="Layer_1" transform="translate(-0.915, -0.9335)">
    <g transform="matrix(0.9335, 0, 0, 0.9335, 0, 0)">
      <g id="icon">
        <g>
          <path d="M19.833, 2.413C20.153, 2.413 20.551, 2.379 21.011, 2.34C21.595, 2.29 22.257, 2.234 22.927, 2.234C23.137, 2.234 23.34, 2.24 23.534, 2.252C23.769, 2.261 24.059, 2.295 24.367, 2.33C24.773, 2.376 25.192, 2.426 25.548, 2.426L25.548, 2.426C26.001, 2.426 26.278, 2.343 26.42, 2.169C26.5, 2.071 26.516, 1.949 26.465, 1.84C26.226, 1.329 24.236, 1.064 23.542, 1.025C23.317, 1.009 23.078, 1 22.83, 1C21.261, 1 19.29, 1.353 19, 1.825C18.938, 1.926 18.935, 2.041 18.991, 2.14C19.128, 2.38 19.494, 2.413 19.833, 2.413z" fill="#727272" class="Black" />
        </g>
      </g>
    </g>
  </g>
  <g id="Layer_1" transform="translate(-0.915, -0.9335)">
    <g transform="matrix(0.9335, 0, 0, 0.9335, 0, 0)">
      <g id="icon">
        <g>
          <path d="M28.923, 18.468C27.22, 17.627 26.131, 15.708 25.608, 14.787C25.54, 14.668 25.483, 14.567 25.436, 14.489C25.366, 14.373 25.293, 14.214 25.209, 14.029C24.85, 13.241 24.249, 11.922 22.682, 11.922C22.662, 11.922 22.642, 11.922 22.623, 11.923C21.441, 11.941 20.826, 12.589 20.687, 13.96C20.565, 15.168 21.182, 16.626 22.574, 18.418L22.585, 18.431C22.879, 18.743 23.207, 19.116 23.523, 19.474C24.685, 20.788 25.231, 21.367 25.582, 21.367L25.582, 21.367C25.678, 21.367 25.762, 21.324 25.818, 21.251C26.359, 20.55 25.923, 20.116 24.868, 19.072C24.623, 18.83 24.346, 18.554 24.028, 18.227C23.048, 17.075 22.216, 15.312 22.096, 14.65C22.016, 14.211 22.125, 13.684 22.35, 13.426C22.462, 13.298 22.588, 13.243 22.74, 13.26L22.754, 13.261C23.217, 13.277 23.76, 14.351 24.196, 15.214C24.443, 15.704 24.677, 16.167 24.92, 16.526C26.179, 18.395 28.69, 20.151 29.491, 20.151C29.709, 20.151 29.796, 20.036 29.828, 19.967C30.124, 19.335 29.154, 18.582 28.923, 18.468z" fill="#727272" class="Black" />
        </g>
      </g>
    </g>
  </g>
  <g id="Layer_1" transform="translate(-0.915, -0.9335)">
    <g transform="matrix(0.9335, 0, 0, 0.9335, 0, 0)">
      <g id="icon">
        <g>
          <path d="M28.399, 8.079C27.201, 7.017 24.929, 5.875 22.772, 5.875C22.652, 5.875 22.532, 5.879 22.418, 5.885C20.69, 5.959 18.886, 6.575 17.472, 7.574C16.685, 8.109 16.085, 8.793 15.649, 9.507C16.031, 9.738 16.369, 10.012 16.662, 10.331C16.683, 10.354 16.702, 10.377 16.723, 10.4C17.127, 9.706 17.698, 9.021 18.541, 8.511C19.448, 7.955 20.56, 7.371 21.936, 7.254C22.248, 7.227 22.547, 7.214 22.825, 7.214C24.694, 7.214 25.805, 7.795 27.446, 9.015C27.877, 9.336 28.424, 9.939 28.953, 10.523C29.797, 11.455 30.291, 11.982 30.64, 11.982C30.721, 11.982 30.794, 11.956 30.852, 11.905C30.904, 11.86 30.967, 11.776 30.968, 11.63C30.973, 10.898 29.281, 8.861 28.399, 8.079z" fill="#727272" class="Black" />
        </g>
      </g>
    </g>
  </g>
  <g id="Layer_1" transform="translate(-0.915, -0.9335)">
    <g transform="matrix(0.9335, 0, 0, 0.9335, 0, 0)">
      <g id="icon">
        <g>
          <path d="M29.669, 14.805C29.609, 14.753 29.555, 14.706 29.509, 14.666C28.7, 13.942 28.351, 13.346 27.948, 12.655C27.755, 12.323 27.555, 11.981 27.29, 11.604C26.694, 10.754 25.079, 8.761 22.966, 8.607C20.975, 8.461 19.353, 9.334 18.159, 11.19C17.976, 11.475 17.819, 11.799 17.696, 12.151C18.002, 13.098 18.054, 14.068 18.054, 14.832C18.054, 15.35 17.998, 15.944 17.887, 16.576C18.128, 17.185 18.463, 17.802 18.906, 18.411L18.931, 18.439C19.374, 18.839 19.686, 19.206 19.914, 19.474C20.216, 19.83 20.398, 20.044 20.638, 20.044C20.756, 20.044 20.865, 19.989 20.964, 19.879C21.376, 19.42 20.986, 18.852 20.339, 17.909C20.272, 17.812 20.203, 17.71 20.13, 17.603C18.813, 15.677 18.841, 14.276 18.983, 13.007C19.115, 11.826 20.864, 9.866 22.492, 9.866C22.528, 9.866 22.563, 9.867 22.599, 9.869C24.201, 9.961 24.96, 10.947 25.629, 11.818C25.788, 12.025 25.939, 12.221 26.094, 12.396C26.442, 12.788 26.64, 13.095 26.869, 13.449C27.152, 13.887 27.473, 14.383 28.153, 15.139C28.924, 15.976 29.769, 16.538 30.254, 16.538C30.437, 16.538 30.579, 16.461 30.654, 16.323C30.883, 15.904 30.319, 15.366 29.669, 14.805z" fill="#727272" class="Black" />
        </g>
      </g>
    </g>
  </g>
  <g id="Layer_1" transform="translate(-0.915, -0.9335)">
    <g transform="matrix(0.9335, 0, 0, 0.9335, 0, 0)">
      <g id="icon">
        <path d="M21.934, 27.117C21.406, 24.451 20.466, 24.406 15.329, 22.592C14.579, 22.31 14.367, 21.905 14.423, 21.326C15.872, 19.594 16.745, 16.791 16.745, 14.832C16.745, 11.798 15.71, 9.876 11.469, 9.876C11.452, 9.876 11.475, 9.876 11.469, 9.876C7.229, 9.876 6.279, 11.798 6.279, 14.832C6.279, 16.791 7.149, 19.588 8.598, 21.321C8.654, 21.9 8.441, 22.308 7.691, 22.59C2.554, 24.405 1.613, 24.45 1.085, 27.116C0.926, 28.188 0.9, 28.637 1.323, 29.824C1.799, 31.161 8.526, 30.986 11.47, 30.986C11.482, 30.986 11.45, 30.986 11.47, 30.986C14.415, 30.986 21.22, 31.161 21.696, 29.825C22.118, 28.638 22.092, 28.189 21.934, 27.117z" fill="#1177D7" class="Blue" fill-rule="evenodd" />
      </g>
    </g>
  </g>
</svg>